<svg xmlns="http://www.w3.org/2000/svg" width="2rem" height="2rem" viewBox="0 0 24 24">
	<g fill="none" stroke="none" stroke-linecap="round" stroke-linejoin="round" stroke-width="1.5" color="none">
		<path d="M12 19.5c-1.332.622-3.083 1-5 1c-1.066 0-2.08-.117-3-.327c-1.582-.363-2-1.293-2-2.787V6.614c0-.985 1.04-1.661 2-1.441c.92.21 1.934.327 3 .327c1.917 0 3.668-.378 5-1s3.083-1 5-1c1.066 0 2.08.117 3 .327c1.582.363 2 1.293 2 2.787v10.772c0 .985-1.04 1.661-2 1.441c-.92-.21-1.934-.327-3-.327c-1.917 0-3.668.378-5 1" />
		<path d="M14.5 12a2.5 2.5 0 1 1-5 0a2.5 2.5 0 0 1 5 0m-9 1v.009m13-2.017v.01" />
	</g>
    <style>
        path { stroke: #000; color: #000; }
        @media (prefers-color-scheme: dark) {
            path { stroke: #FFF; color: #FFF; }
        }
    </style>
</svg>